<svg xmlns="http://www.w3.org/2000/svg" viewBox="0 0 600 400" role="img" aria-label="NOCO Boost Plus GB40 jump starter (product render)">
<defs>
<radialGradient id="cgb40-bg" cx="50%" cy="38%" r="72%"><stop offset="0" stop-color="#ffffff"/><stop offset="0.7" stop-color="#f3f3f1"/><stop offset="1" stop-color="#e4e4e1"/></radialGradient>
<filter id="cgb40-blur" x="-30%" y="-80%" width="160%" height="300%"><feGaussianBlur stdDeviation="9"/></filter>
<filter id="cgb40-soft" x="-20%" y="-20%" width="140%" height="140%"><feGaussianBlur stdDeviation="2.2"/></filter>
<filter id="cgb40-glow" x="-50%" y="-50%" width="200%" height="200%"><feGaussianBlur stdDeviation="5"/></filter>
<linearGradient id="cgb40-front" x1="0" y1="0" x2="0.35" y2="1"><stop offset="0" stop-color="#484848"/><stop offset="0.55" stop-color="#2F2F2F"/><stop offset="1" stop-color="#181818"/></linearGradient>
<linearGradient id="cgb40-side" x1="0" y1="0" x2="1" y2="1"><stop offset="0" stop-color="#202020"/><stop offset="1" stop-color="#000000"/></linearGradient>
<linearGradient id="cgb40-top" x1="0" y1="0" x2="1" y2="1"><stop offset="0" stop-color="#6c6c6c"/><stop offset="1" stop-color="#3e3e3e"/></linearGradient>
<radialGradient id="cgb40-dome" cx="38%" cy="32%" r="75%"><stop offset="0" stop-color="#676767"/><stop offset="0.6" stop-color="#2F2F2F"/><stop offset="1" stop-color="#0b0b0b"/></radialGradient>
<linearGradient id="cgb40-gloss" x1="0" y1="0" x2="1" y2="1"><stop offset="0" stop-color="#ffffff" stop-opacity="0.55"/><stop offset="0.5" stop-color="#ffffff" stop-opacity="0.05"/><stop offset="1" stop-color="#ffffff" stop-opacity="0"/></linearGradient>
<linearGradient id="cgb40-screen" x1="0" y1="0" x2="1" y2="1"><stop offset="0" stop-color="#1d2a3a"/><stop offset="1" stop-color="#060a10"/></linearGradient>
<linearGradient id="cgb40-metal" x1="0" y1="0" x2="1" y2="0"><stop offset="0" stop-color="#d9d9d6"/><stop offset="0.35" stop-color="#f4f4f2"/><stop offset="0.65" stop-color="#bdbdb9"/><stop offset="1" stop-color="#e6e6e3"/></linearGradient>
<linearGradient id="cgb40-accent" x1="0" y1="0" x2="0" y2="1"><stop offset="0" stop-color="#f5b06c"/><stop offset="1" stop-color="#c96b0e"/></linearGradient>
<linearGradient id="cgb40-lens" x1="0" y1="0" x2="1" y2="1"><stop offset="0" stop-color="#5a6470"/><stop offset="0.45" stop-color="#1c2129"/><stop offset="0.55" stop-color="#2b323c"/><stop offset="1" stop-color="#0c0f14"/></linearGradient>
</defs>
<rect width="600" height="400" rx="18" fill="url(#cgb40-bg)"/><ellipse cx="300" cy="336" rx="200" ry="16" fill="#000" opacity="0.28" filter="url(#cgb40-blur)"/>
<path d="M 410 136.4 L 443.0 109.4 L 443.0 266.6 Q 443.0 273.0 438.2 273.0 L 410 297.6 Z" fill="url(#cgb40-side)"/><path d="M 178.0 130 L 211.0 103.0 L 438.2 103.0 Q 443.0 103.0 443.0 109.4 L 410 136.4 Q 410 130 402.0 130 Z" fill="url(#cgb40-top)"/><rect x="170" y="130" width="240" height="170" rx="16" fill="url(#cgb40-front)"/><rect x="170" y="130" width="240" height="170" rx="16" fill="none" stroke="#000000" stroke-width="1.2" opacity="0.6"/><path d="M 186 133 L 394 133" stroke="#fff" stroke-opacity="0.35" stroke-width="2" stroke-linecap="round"/>
<rect x="196" y="196" width="150" height="26" rx="8" fill="#F08A24"/><rect x="204" y="203" width="70" height="6" rx="3" fill="#fff" opacity="0.7"/><rect x="204" y="212" width="46" height="5" rx="2.5" fill="#fff" opacity="0.45"/>
<rect x="430" y="300" width="70" height="18" rx="6" fill="#F08A24"/><rect x="438" y="306" width="36" height="6" rx="3" fill="#fff" opacity="0.7"/>
<g font-family="-apple-system,Segoe UI,Roboto,Helvetica,Arial,sans-serif">
<rect x="18" y="18" width="275" height="28" rx="14" fill="#1B2A41"/>
<text x="155.5" y="37" text-anchor="middle" font-size="13" font-weight="700" fill="#fff">1,000 amps · 6L gas · USB power bank</text>
<text x="22" y="380" font-size="22" font-weight="700" fill="#1B2A41">NOCO GB40</text>
<text x="578" y="382" text-anchor="end" font-size="11" fill="#9a9a9a">Render, not a photo</text>
</g>
</svg>
