<svg xmlns="http://www.w3.org/2000/svg" viewBox="0 0 1200 630" role="img" aria-label="Levoit Core 300-P Air Purifier review 2026: is the under-$100 bedroom purifier still worth about $90, why the filter is the real price, and where to buy it (Verdict Picks)"><defs>
<linearGradient id="bc-bg" x1="0" y1="0" x2="1" y2="1"><stop offset="0" stop-color="#FFF6E3"/><stop offset="0.55" stop-color="#F7F5F0"/><stop offset="1" stop-color="#DDF2E5"/></linearGradient>
<radialGradient id="bc-sun" cx="50%" cy="50%" r="50%"><stop offset="0" stop-color="#FFD27A" stop-opacity="0.85"/><stop offset="1" stop-color="#FFD27A" stop-opacity="0"/></radialGradient>
<radialGradient id="bc-leaf" cx="50%" cy="50%" r="50%"><stop offset="0" stop-color="#8FD3AE" stop-opacity="0.7"/><stop offset="1" stop-color="#8FD3AE" stop-opacity="0"/></radialGradient>
</defs><rect width="1200" height="630" fill="url(#bc-bg)"/><circle cx="1010" cy="120" r="300" fill="url(#bc-sun)"/><circle cx="760" cy="560" r="260" fill="url(#bc-leaf)"/><g font-family="-apple-system,Segoe UI,Roboto,Helvetica,Arial,sans-serif"><rect x="64" y="70" width="330" height="36" rx="18" fill="#1E8E5A"/><text x="229" y="95" text-anchor="middle" font-size="16" font-weight="700" fill="#fff" letter-spacing="1.5">VERDICT PICKS · BUYING GUIDE</text><text x="64" y="236" font-size="44" font-weight="800" fill="#1B2A41">Levoit Core 300-P:</text><text x="64" y="294" font-size="44" font-weight="800" fill="#1B2A41">still worth about $90?</text><text x="64" y="352" font-size="44" font-weight="800" fill="#1B2A41">The filter is the real price</text><text x="64" y="468" font-size="22" fill="#3A4453">Who it is for, what owners say after years,</text><text x="64" y="498" font-size="22" fill="#3A4453">how to set it up right, what a filter costs,</text><text x="64" y="528" font-size="22" fill="#3A4453">and where to buy it (and where not to).</text><text x="64" y="612" font-size="17" fill="#6B7684">Product of the day · Levoit Core 300-P Air Purifier · Verdict Picks</text></g><circle cx="960" cy="265" r="212" fill="#fff"/><circle cx="960" cy="265" r="212" fill="none" stroke="#1E8E5A" stroke-width="6"/><g transform="translate(749.4736842105264 128.1578947368421) scale(0.7017543859649122)"><defs>
<radialGradient id="bchero-bg" cx="50%" cy="38%" r="72%"><stop offset="0" stop-color="#ffffff"/><stop offset="0.7" stop-color="#f3f3f1"/><stop offset="1" stop-color="#e4e4e1"/></radialGradient>
<filter id="bchero-blur" x="-30%" y="-80%" width="160%" height="300%"><feGaussianBlur stdDeviation="9"/></filter>
<filter id="bchero-soft" x="-20%" y="-20%" width="140%" height="140%"><feGaussianBlur stdDeviation="2.2"/></filter>
<filter id="bchero-glow" x="-50%" y="-50%" width="200%" height="200%"><feGaussianBlur stdDeviation="5"/></filter>
<linearGradient id="bchero-front" x1="0" y1="0" x2="0.35" y2="1"><stop offset="0" stop-color="#ffffff"/><stop offset="0.55" stop-color="#F1F1EF"/><stop offset="1" stop-color="#dcdcd7"/></linearGradient>
<linearGradient id="bchero-side" x1="0" y1="0" x2="1" y2="1"><stop offset="0" stop-color="#e3e3df"/><stop offset="1" stop-color="#c1c1b9"/></linearGradient>
<linearGradient id="bchero-top" x1="0" y1="0" x2="1" y2="1"><stop offset="0" stop-color="#ffffff"/><stop offset="1" stop-color="#ffffff"/></linearGradient>
<radialGradient id="bchero-dome" cx="38%" cy="32%" r="75%"><stop offset="0" stop-color="#ffffff"/><stop offset="0.6" stop-color="#F1F1EF"/><stop offset="1" stop-color="#d0d0c9"/></radialGradient>
<linearGradient id="bchero-gloss" x1="0" y1="0" x2="1" y2="1"><stop offset="0" stop-color="#ffffff" stop-opacity="0.55"/><stop offset="0.5" stop-color="#ffffff" stop-opacity="0.05"/><stop offset="1" stop-color="#ffffff" stop-opacity="0"/></linearGradient>
<linearGradient id="bchero-screen" x1="0" y1="0" x2="1" y2="1"><stop offset="0" stop-color="#1d2a3a"/><stop offset="1" stop-color="#060a10"/></linearGradient>
<linearGradient id="bchero-metal" x1="0" y1="0" x2="1" y2="0"><stop offset="0" stop-color="#d9d9d6"/><stop offset="0.35" stop-color="#f4f4f2"/><stop offset="0.65" stop-color="#bdbdb9"/><stop offset="1" stop-color="#e6e6e3"/></linearGradient>
<linearGradient id="bchero-accent" x1="0" y1="0" x2="0" y2="1"><stop offset="0" stop-color="#2bcd82"/><stop offset="1" stop-color="#135b3a"/></linearGradient>
<linearGradient id="bchero-lens" x1="0" y1="0" x2="1" y2="1"><stop offset="0" stop-color="#5a6470"/><stop offset="0.45" stop-color="#1c2129"/><stop offset="0.55" stop-color="#2b323c"/><stop offset="1" stop-color="#0c0f14"/></linearGradient>
</defs>
<ellipse cx="300" cy="330" rx="150" ry="16" fill="#000" opacity="0.28" filter="url(#bchero-blur)"/>
<defs><pattern id="bchero-holes" width="13" height="13" patternUnits="userSpaceOnUse"><circle cx="6.5" cy="6.5" r="2.2" fill="#8d8d7d" opacity="0.5"/></pattern><linearGradient id="bchero-shell" x1="0" y1="0" x2="1" y2="0"><stop offset="0" stop-color="#cbcbc3"/><stop offset="0.3" stop-color="#ffffff"/><stop offset="0.7" stop-color="#F1F1EF"/><stop offset="1" stop-color="#bdbdb3"/></linearGradient></defs>
<ellipse cx="300" cy="318" rx="84" ry="17" fill="#a5a598"/>
<rect x="216" y="102" width="168" height="216" fill="url(#bchero-shell)"/>
<rect x="216" y="158" width="168" height="160" fill="url(#bchero-holes)"/>
<path d="M 216 318 A 84 17 0 0 0 384 318" fill="#d4d4ce" opacity="0.55"/>
<path d="M 216 158 A 84 17 0 0 0 384 158" fill="none" stroke="#bdbdb3" stroke-width="1.6" opacity="0.8"/>
<ellipse cx="300" cy="102" rx="84" ry="17" fill="#ffffff"/>
<ellipse cx="300" cy="102" rx="72" ry="14" fill="#e3e3df"/>
<ellipse cx="300" cy="102" rx="64" ry="11.5" fill="none" stroke="#9b9b8d" stroke-width="2.2" opacity="0.7"/>
<ellipse cx="300" cy="102" rx="52" ry="9.4" fill="none" stroke="#9b9b8d" stroke-width="2.2" opacity="0.7"/>
<ellipse cx="300" cy="102" rx="40" ry="7.2" fill="none" stroke="#9b9b8d" stroke-width="2.2" opacity="0.7"/>
<ellipse cx="300" cy="102" rx="28" ry="5.0" fill="none" stroke="#9b9b8d" stroke-width="2.2" opacity="0.7"/>
<ellipse cx="300" cy="102" rx="14" ry="3" fill="#929282" opacity="0.7"/>
<rect x="262" y="111" width="76" height="30" rx="15" fill="#e0e0dc"/>
<circle cx="300" cy="126" r="9" fill="none" stroke="#1E8E5A" stroke-width="2.6"/><line x1="300" y1="116" x2="300" y2="126" stroke="#1E8E5A" stroke-width="2.6" stroke-linecap="round"/>
<circle cx="277" cy="126" r="3" fill="#9e9e90"/><circle cx="323" cy="126" r="3" fill="#9e9e90"/>
<rect x="230" y="128" width="14" height="162" rx="7" fill="#fff" opacity="0.26"/>
<path d="M 268 76 q 12 -18 30 -8 q 10 -18 30 -6 q 14 -8 24 8" fill="none" stroke="#1E8E5A" stroke-width="3" stroke-linecap="round" opacity="0.45"/></g><g transform="translate(700 478)"><rect x="6" y="10" width="150" height="104" rx="18" fill="#1B2A41" opacity="0.12"/><rect width="150" height="104" rx="18" fill="#fff"/><rect width="150" height="104" rx="18" fill="none" stroke="#E3E1DB"/><svg x="8" y="6" width="134" height="92" viewBox="60 40 480 320" preserveAspectRatio="xMidYMid meet"><g transform="translate(0 0) scale(1.0)"><defs>
<radialGradient id="ccore300rf-bg" cx="50%" cy="38%" r="72%"><stop offset="0" stop-color="#ffffff"/><stop offset="0.7" stop-color="#f3f3f1"/><stop offset="1" stop-color="#e4e4e1"/></radialGradient>
<filter id="ccore300rf-blur" x="-30%" y="-80%" width="160%" height="300%"><feGaussianBlur stdDeviation="9"/></filter>
<filter id="ccore300rf-soft" x="-20%" y="-20%" width="140%" height="140%"><feGaussianBlur stdDeviation="2.2"/></filter>
<filter id="ccore300rf-glow" x="-50%" y="-50%" width="200%" height="200%"><feGaussianBlur stdDeviation="5"/></filter>
<linearGradient id="ccore300rf-front" x1="0" y1="0" x2="0.35" y2="1"><stop offset="0" stop-color="#545454"/><stop offset="0.55" stop-color="#3A3A3A"/><stop offset="1" stop-color="#232323"/></linearGradient>
<linearGradient id="ccore300rf-side" x1="0" y1="0" x2="1" y2="1"><stop offset="0" stop-color="#2b2b2b"/><stop offset="1" stop-color="#070707"/></linearGradient>
<linearGradient id="ccore300rf-top" x1="0" y1="0" x2="1" y2="1"><stop offset="0" stop-color="#777777"/><stop offset="1" stop-color="#494949"/></linearGradient>
<radialGradient id="ccore300rf-dome" cx="38%" cy="32%" r="75%"><stop offset="0" stop-color="#727272"/><stop offset="0.6" stop-color="#3A3A3A"/><stop offset="1" stop-color="#161616"/></radialGradient>
<linearGradient id="ccore300rf-gloss" x1="0" y1="0" x2="1" y2="1"><stop offset="0" stop-color="#ffffff" stop-opacity="0.55"/><stop offset="0.5" stop-color="#ffffff" stop-opacity="0.05"/><stop offset="1" stop-color="#ffffff" stop-opacity="0"/></linearGradient>
<linearGradient id="ccore300rf-screen" x1="0" y1="0" x2="1" y2="1"><stop offset="0" stop-color="#1d2a3a"/><stop offset="1" stop-color="#060a10"/></linearGradient>
<linearGradient id="ccore300rf-metal" x1="0" y1="0" x2="1" y2="0"><stop offset="0" stop-color="#d9d9d6"/><stop offset="0.35" stop-color="#f4f4f2"/><stop offset="0.65" stop-color="#bdbdb9"/><stop offset="1" stop-color="#e6e6e3"/></linearGradient>
<linearGradient id="ccore300rf-accent" x1="0" y1="0" x2="0" y2="1"><stop offset="0" stop-color="#2bcd82"/><stop offset="1" stop-color="#135b3a"/></linearGradient>
<linearGradient id="ccore300rf-lens" x1="0" y1="0" x2="1" y2="1"><stop offset="0" stop-color="#5a6470"/><stop offset="0.45" stop-color="#1c2129"/><stop offset="0.55" stop-color="#2b323c"/><stop offset="1" stop-color="#0c0f14"/></linearGradient>
</defs>
<ellipse cx="300" cy="336" rx="200" ry="16" fill="#000" opacity="0.28" filter="url(#ccore300rf-blur)"/>
<ellipse cx="300" cy="316" rx="92" ry="20" fill="#000000"/><rect x="208" y="112" width="184" height="204" fill="url(#ccore300rf-front)"/><ellipse cx="300" cy="112" rx="92" ry="20" fill="#727272"/><ellipse cx="300" cy="316" rx="92" ry="20" fill="#3A3A3A" opacity="0.35"/><rect x="208" y="150" width="184" height="18" fill="#1E8E5A"/><ellipse cx="300" cy="112" rx="56" ry="11" fill="#000000"/><rect x="224" y="124" width="12" height="170" rx="6" fill="#fff" opacity="0.16"/>
<rect x="430" y="300" width="70" height="18" rx="6" fill="#1E8E5A"/><rect x="438" y="306" width="36" height="6" rx="3" fill="#fff" opacity="0.7"/></g></svg></g><circle cx="1120" cy="80" r="40" fill="#1E8E5A"/><path d="M 1100 81 L 1113 94 L 1141 67" fill="none" stroke="#fff" stroke-width="9" stroke-linecap="round" stroke-linejoin="round"/></svg>
