<svg xmlns="http://www.w3.org/2000/svg" viewBox="0 0 600 400" role="img" aria-label="Rokid AI Glasses Style (product render)">
<defs>
<radialGradient id="crokidstyle-bg" cx="50%" cy="38%" r="72%"><stop offset="0" stop-color="#ffffff"/><stop offset="0.7" stop-color="#f3f3f1"/><stop offset="1" stop-color="#e4e4e1"/></radialGradient>
<filter id="crokidstyle-blur" x="-30%" y="-80%" width="160%" height="300%"><feGaussianBlur stdDeviation="9"/></filter>
<filter id="crokidstyle-soft" x="-20%" y="-20%" width="140%" height="140%"><feGaussianBlur stdDeviation="2.2"/></filter>
<filter id="crokidstyle-glow" x="-50%" y="-50%" width="200%" height="200%"><feGaussianBlur stdDeviation="5"/></filter>
<linearGradient id="crokidstyle-front" x1="0" y1="0" x2="0.35" y2="1"><stop offset="0" stop-color="#3c3c3c"/><stop offset="0.55" stop-color="#222"/><stop offset="1" stop-color="#0b0b0b"/></linearGradient>
<linearGradient id="crokidstyle-side" x1="0" y1="0" x2="1" y2="1"><stop offset="0" stop-color="#131313"/><stop offset="1" stop-color="#000000"/></linearGradient>
<linearGradient id="crokidstyle-top" x1="0" y1="0" x2="1" y2="1"><stop offset="0" stop-color="#5f5f5f"/><stop offset="1" stop-color="#313131"/></linearGradient>
<radialGradient id="crokidstyle-dome" cx="38%" cy="32%" r="75%"><stop offset="0" stop-color="#5a5a5a"/><stop offset="0.6" stop-color="#222"/><stop offset="1" stop-color="#000000"/></radialGradient>
<linearGradient id="crokidstyle-gloss" x1="0" y1="0" x2="1" y2="1"><stop offset="0" stop-color="#ffffff" stop-opacity="0.55"/><stop offset="0.5" stop-color="#ffffff" stop-opacity="0.05"/><stop offset="1" stop-color="#ffffff" stop-opacity="0"/></linearGradient>
<linearGradient id="crokidstyle-screen" x1="0" y1="0" x2="1" y2="1"><stop offset="0" stop-color="#1d2a3a"/><stop offset="1" stop-color="#060a10"/></linearGradient>
<linearGradient id="crokidstyle-metal" x1="0" y1="0" x2="1" y2="0"><stop offset="0" stop-color="#d9d9d6"/><stop offset="0.35" stop-color="#f4f4f2"/><stop offset="0.65" stop-color="#bdbdb9"/><stop offset="1" stop-color="#e6e6e3"/></linearGradient>
<linearGradient id="crokidstyle-accent" x1="0" y1="0" x2="0" y2="1"><stop offset="0" stop-color="#bdefd2"/><stop offset="1" stop-color="#4ed487"/></linearGradient>
<linearGradient id="crokidstyle-lens" x1="0" y1="0" x2="1" y2="1"><stop offset="0" stop-color="#5a6470"/><stop offset="0.45" stop-color="#1c2129"/><stop offset="0.55" stop-color="#2b323c"/><stop offset="1" stop-color="#0c0f14"/></linearGradient>
</defs>
<rect width="600" height="400" rx="18" fill="url(#crokidstyle-bg)"/><ellipse cx="300" cy="300" rx="200" ry="14" fill="#000" opacity="0.28" filter="url(#crokidstyle-blur)"/>
<linearGradient id="crokidstyle-fr" x1="0" y1="0" x2="0" y2="1"><stop offset="0" stop-color="#6e6e6e"/><stop offset="0.45" stop-color="#222"/><stop offset="1" stop-color="#000000"/></linearGradient>
<circle cx="205" cy="212" r="66" fill="url(#crokidstyle-lens)" opacity="0.96"/>
<circle cx="205" cy="212" r="66" fill="none" stroke="url(#crokidstyle-fr)" stroke-width="11" stroke-linejoin="round"/>
<path d="M 168.04 248.96 L 211.60000000000002 169.76" stroke="#fff" stroke-opacity="0.32" stroke-width="21.12" stroke-linecap="round" filter="url(#crokidstyle-soft)"/>
<circle cx="395" cy="212" r="66" fill="url(#crokidstyle-lens)" opacity="0.96"/>
<circle cx="395" cy="212" r="66" fill="none" stroke="url(#crokidstyle-fr)" stroke-width="11" stroke-linejoin="round"/>
<path d="M 358.04 248.96 L 401.6 169.76" stroke="#fff" stroke-opacity="0.32" stroke-width="21.12" stroke-linecap="round" filter="url(#crokidstyle-soft)"/>
<path d="M 288 190 Q 300 178 312 190" fill="none" stroke="url(#crokidstyle-fr)" stroke-width="11" stroke-linecap="round"/>
<path d="M 110 186 L 66 156 M 490 186 L 534 156" stroke="url(#crokidstyle-fr)" stroke-width="12" stroke-linecap="round"/>
<path d="M 66 156 L 62 150 M 534 156 L 538 150" stroke="#000000" stroke-width="12" stroke-linecap="round"/>
<circle cx="153" cy="160" r="10" fill="#0b0b0b" stroke="#9a9a9a" stroke-width="2.5"/><circle cx="153" cy="160" r="5" fill="#1a2430"/><circle cx="150" cy="157" r="2" fill="#fff" opacity="0.9"/>
<circle cx="447" cy="160" r="3.5" fill="#fff" opacity="0.7"/>
<g font-family="-apple-system,Segoe UI,Roboto,Helvetica,Arial,sans-serif">
<rect x="18" y="18" width="282" height="28" rx="14" fill="#1B2A41"/>
<text x="159.0" y="37" text-anchor="middle" font-size="13" font-weight="700" fill="#fff">12MP camera · ChatGPT &amp; Gemini · $299</text>
<text x="22" y="380" font-size="22" font-weight="700" fill="#1B2A41">Rokid AI Glasses Style</text>
<text x="578" y="382" text-anchor="end" font-size="11" fill="#9a9a9a">Render, not a photo</text>
</g>
</svg>
