<svg xmlns="http://www.w3.org/2000/svg" viewBox="0 0 600 400" role="img" aria-label="EcoFlow DELTA Pro 3 (illustration)">
<rect width="600" height="400" rx="18" fill="#F7F5F0"/>
<ellipse cx="300" cy="318" rx="190" ry="16" fill="#000" opacity="0.07"/>
<rect x="466.0" y="-21" width="14" height="70" rx="6" fill="#C9C9C4"/><rect x="426.0" y="-27" width="60" height="14" rx="7" fill="#C9C9C4"/>
<rect x="110.0" y="39" width="380" height="250" rx="22" fill="#3A3D42"/>
<rect x="110.0" y="39" width="380" height="18" rx="9" fill="#5C6470"/>
<rect x="140.4" y="89.0" width="136.79999999999998" height="90.0" rx="10" fill="#1B2A41" stroke="#000" stroke-width="2"/>
<text x="208.8" y="142.0" text-anchor="middle" font-family="-apple-system,Segoe UI,Roboto,Helvetica,Arial,sans-serif" font-size="22" font-weight="700" fill="#8FD3AE">4,096 Wh</text>
<rect x="307.6" y="89.0" width="72.2" height="72.2" rx="8" fill="#F1F1EE"/>
<rect x="327.81600000000003" y="110.66" width="8.664" height="23.104000000000003" rx="2" fill="#3A3D42"/><rect x="350.92" y="110.66" width="8.664" height="23.104000000000003" rx="2" fill="#3A3D42"/>
<rect x="389.8" y="89.0" width="72.2" height="72.2" rx="8" fill="#F1F1EE"/>
<rect x="410.016" y="110.66" width="8.664" height="23.104000000000003" rx="2" fill="#3A3D42"/><rect x="433.12" y="110.66" width="8.664" height="23.104000000000003" rx="2" fill="#3A3D42"/>
<rect x="307.6" y="169.2" width="72.2" height="72.2" rx="8" fill="#F1F1EE"/>
<rect x="327.81600000000003" y="190.85999999999999" width="8.664" height="23.104000000000003" rx="2" fill="#3A3D42"/><rect x="350.92" y="190.85999999999999" width="8.664" height="23.104000000000003" rx="2" fill="#3A3D42"/>
<rect x="389.8" y="169.2" width="72.2" height="72.2" rx="8" fill="#F1F1EE"/>
<rect x="410.016" y="190.85999999999999" width="8.664" height="23.104000000000003" rx="2" fill="#3A3D42"/><rect x="433.12" y="190.85999999999999" width="8.664" height="23.104000000000003" rx="2" fill="#3A3D42"/>
<rect x="140.4" y="193.0" width="37.599999999999994" height="12" rx="4" fill="#F1F1EE" opacity="0.85"/>
<rect x="186.0" y="193.0" width="37.599999999999994" height="12" rx="4" fill="#F1F1EE" opacity="0.85"/>
<rect x="231.6" y="193.0" width="37.599999999999994" height="12" rx="4" fill="#F1F1EE" opacity="0.85"/>
<circle cx="150.0" cy="303" r="18" fill="#222" stroke="#555" stroke-width="4"/><circle cx="450.0" cy="303" r="18" fill="#222" stroke="#555" stroke-width="4"/>
<path d="M 444.0 237 l -12 24 h 12 l -6 22 l 20 -30 h -12 l 8 -16 z" fill="#5C6470"/>
<g font-family="-apple-system,Segoe UI,Roboto,Helvetica,Arial,sans-serif">
<rect x="18" y="18" width="296" height="28" rx="14" fill="#1B2A41"/>
<text x="166.0" y="37" text-anchor="middle" font-size="13" font-weight="700" fill="#fff">4,096 Wh · 4,000 W · 240 V · expandable</text>
<text x="22" y="378" font-size="22" font-weight="700" fill="#1B2A41">EcoFlow DELTA Pro 3</text>
<text x="578" y="380" text-anchor="end" font-size="11" fill="#999">Illustration</text>
</g>
</svg>
