<svg xmlns="http://www.w3.org/2000/svg" viewBox="0 0 1200 440" role="img" aria-label="A day with the REDTIGER F7NP — in real life">
<rect width="1200" height="440" rx="18" fill="#F7F5F0"/>
<text x="24" y="40" font-family="-apple-system,Segoe UI,Roboto,Helvetica,Arial,sans-serif" font-size="24" font-weight="800" fill="#1B2A41">A day with the REDTIGER F7NP — in real life</text>
<text x="1176" y="40" text-anchor="end" font-family="-apple-system,Segoe UI,Roboto,Helvetica,Arial,sans-serif" font-size="14" fill="#888">in real life · 4 panels</text>
<rect x="20.0" y="62" width="276.5" height="358" rx="16" fill="#fff" stroke="#1B2A41" stroke-width="4"/>
<rect x="24.0" y="66" width="268.5" height="200.48000000000002" rx="12" fill="#DCE7F5"/>
<circle cx="50.0" cy="92" r="18" fill="#1B2A41"/><text x="50.0" y="99" text-anchor="middle" font-family="-apple-system,Segoe UI,Roboto,Helvetica,Arial,sans-serif" font-size="20" font-weight="800" fill="#fff">1</text>
<g transform="translate(28.0 72) scale(0.5)"><path d="M 108 120 Q 92 200 104 250 L 216 250 Q 228 200 212 120 Q 160 40 108 120 Z" fill="#3A2A22"/><rect x="146" y="166" width="28" height="36" rx="10" fill="#D89C74"/><path d="M 96 236 Q 100 210 132 202 L 160 196 L 188 202 Q 220 210 224 236 L 232 360 L 88 360 Z" fill="#1B2A41"/><path d="M 138 204 L 160 244 L 182 204 L 172 200 L 160 220 L 148 200 Z" fill="#1E8E5A"/><path d="M 136 204 L 118 360 M 184 204 L 202 360" stroke="#14202F" stroke-width="3" fill="none" opacity="0.6"/><path d="M 98 240 Q 84 300 96 350 L 116 348 Q 108 300 118 244 Z" fill="#1B2A41"/><circle cx="106" cy="352" r="12" fill="#EDBB94"/><ellipse cx="160" cy="118" rx="50" ry="58" fill="#EDBB94"/><path d="M 110 118 q -8 26 12 22 M 210 118 q 8 26 -12 22" stroke="#EDBB94" stroke-width="10" stroke-linecap="round" fill="none"/><path d="M 108 116 Q 112 52 168 56 Q 216 60 212 118 Q 208 92 184 84 Q 150 104 122 92 Q 110 100 108 116 Z" fill="#3A2A22"/><path d="M 128 72 Q 150 60 178 66" stroke="#5A4034" stroke-width="4" fill="none" stroke-linecap="round" opacity="0.8"/><path d="M 130 100 q 12 -8 26 -2 M 166 98 q 14 -6 26 2" stroke="#3A2A22" stroke-width="3.2" fill="none" stroke-linecap="round"/><path d="M 131 116 q 12 -12 24 0 q -12 10 -24 0 z" fill="#fff"/><circle cx="144" cy="115" r="5.2" fill="#3B2A22"/><circle cx="146" cy="113" r="1.8" fill="#fff"/><path d="M 131 116 q 12 -12 24 0" stroke="#2A1D17" stroke-width="2.4" fill="none" stroke-linecap="round"/><path d="M 167 116 q 12 -12 24 0 q -12 10 -24 0 z" fill="#fff"/><circle cx="180" cy="115" r="5.2" fill="#3B2A22"/><circle cx="182" cy="113" r="1.8" fill="#fff"/><path d="M 167 116 q 12 -12 24 0" stroke="#2A1D17" stroke-width="2.4" fill="none" stroke-linecap="round"/><path d="M 160 124 q -6 12 4 16" stroke="#D89C74" stroke-width="2.4" fill="none" stroke-linecap="round"/><path d="M 146 150 q 14 14 30 0 q -15 6 -30 0 z" fill="#C9575D"/><path d="M 146 150 q 14 8 30 0" stroke="#A8434A" stroke-width="1.5" fill="none"/><ellipse cx="132" cy="136" rx="9" ry="5" fill="#E58A7A" opacity="0.35"/><ellipse cx="190" cy="136" rx="9" ry="5" fill="#E58A7A" opacity="0.35"/><circle cx="112" cy="146" r="3.5" fill="#D4AF37"/><circle cx="208" cy="146" r="3.5" fill="#D4AF37"/><path d="M 222 232 Q 262 236 292 226 L 300 244 Q 266 258 226 252 Z" fill="#1B2A41"/><ellipse cx="312" cy="232" rx="17" ry="12" fill="#EDBB94"/><g stroke="#EDBB94" stroke-width="7" stroke-linecap="round"><path d="M 318 222 L 336 214"/><path d="M 322 228 L 342 224"/><path d="M 322 236 L 342 236"/><path d="M 318 242 L 336 246"/></g></g>
<g transform="translate(222.5 76) scale(0.42)"><circle cx="70" cy="70" r="52" fill="#fff" stroke="#1B2A41" stroke-width="8"/><path d="M 70 70 L 70 36 M 70 70 L 94 82" stroke="#1B2A41" stroke-width="8" stroke-linecap="round"/><circle cx="70" cy="70" r="5" fill="#1B2A41"/></g>
<text x="36.0" y="296.48" font-family="-apple-system,Segoe UI,Roboto,Helvetica,Arial,sans-serif" font-size="17" font-weight="800" fill="#1B2A41">Dark commute</text>
<text x="36.0" y="322.48" font-family="-apple-system,Segoe UI,Roboto,Helvetica,Arial,sans-serif" font-size="15.5" fill="#333">Clocks go back Nov 1; the 5</text>
<text x="36.0" y="343.48" font-family="-apple-system,Segoe UI,Roboto,Helvetica,Arial,sans-serif" font-size="15.5" fill="#333">p.m. drive is now after sunset.</text>
<rect x="314.5" y="62" width="276.5" height="358" rx="16" fill="#fff" stroke="#1B2A41" stroke-width="4"/>
<rect x="318.5" y="66" width="268.5" height="200.48000000000002" rx="12" fill="#E4F3EA"/>
<circle cx="344.5" cy="92" r="18" fill="#1B2A41"/><text x="344.5" y="99" text-anchor="middle" font-family="-apple-system,Segoe UI,Roboto,Helvetica,Arial,sans-serif" font-size="20" font-weight="800" fill="#fff">2</text>
<g transform="translate(344.75 84) scale(0.36)"><defs>
<radialGradient id="s1-bg" cx="50%" cy="38%" r="72%"><stop offset="0" stop-color="#ffffff"/><stop offset="0.7" stop-color="#f3f3f1"/><stop offset="1" stop-color="#e4e4e1"/></radialGradient>
<filter id="s1-blur" x="-30%" y="-80%" width="160%" height="300%"><feGaussianBlur stdDeviation="9"/></filter>
<filter id="s1-soft" x="-20%" y="-20%" width="140%" height="140%"><feGaussianBlur stdDeviation="2.2"/></filter>
<filter id="s1-glow" x="-50%" y="-50%" width="200%" height="200%"><feGaussianBlur stdDeviation="5"/></filter>
<linearGradient id="s1-front" x1="0" y1="0" x2="0.35" y2="1"><stop offset="0" stop-color="#343434"/><stop offset="0.55" stop-color="#1B1B1B"/><stop offset="1" stop-color="#040404"/></linearGradient>
<linearGradient id="s1-side" x1="0" y1="0" x2="1" y2="1"><stop offset="0" stop-color="#0c0c0c"/><stop offset="1" stop-color="#000000"/></linearGradient>
<linearGradient id="s1-top" x1="0" y1="0" x2="1" y2="1"><stop offset="0" stop-color="#585858"/><stop offset="1" stop-color="#2a2a2a"/></linearGradient>
<radialGradient id="s1-dome" cx="38%" cy="32%" r="75%"><stop offset="0" stop-color="#535353"/><stop offset="0.6" stop-color="#1B1B1B"/><stop offset="1" stop-color="#000000"/></radialGradient>
<linearGradient id="s1-gloss" x1="0" y1="0" x2="1" y2="1"><stop offset="0" stop-color="#ffffff" stop-opacity="0.55"/><stop offset="0.5" stop-color="#ffffff" stop-opacity="0.05"/><stop offset="1" stop-color="#ffffff" stop-opacity="0"/></linearGradient>
<linearGradient id="s1-screen" x1="0" y1="0" x2="1" y2="1"><stop offset="0" stop-color="#1d2a3a"/><stop offset="1" stop-color="#060a10"/></linearGradient>
<linearGradient id="s1-metal" x1="0" y1="0" x2="1" y2="0"><stop offset="0" stop-color="#d9d9d6"/><stop offset="0.35" stop-color="#f4f4f2"/><stop offset="0.65" stop-color="#bdbdb9"/><stop offset="1" stop-color="#e6e6e3"/></linearGradient>
<linearGradient id="s1-accent" x1="0" y1="0" x2="0" y2="1"><stop offset="0" stop-color="#ef3654"/><stop offset="1" stop-color="#8f0b21"/></linearGradient>
<linearGradient id="s1-lens" x1="0" y1="0" x2="1" y2="1"><stop offset="0" stop-color="#5a6470"/><stop offset="0.45" stop-color="#1c2129"/><stop offset="0.55" stop-color="#2b323c"/><stop offset="1" stop-color="#0c0f14"/></linearGradient>
</defs>
<ellipse cx="300" cy="336" rx="200" ry="16" fill="#000" opacity="0.28" filter="url(#s1-blur)"/>
<path d="M 410 136.4 L 443.0 109.4 L 443.0 266.6 Q 443.0 273.0 438.2 273.0 L 410 297.6 Z" fill="url(#s1-side)"/><path d="M 178.0 130 L 211.0 103.0 L 438.2 103.0 Q 443.0 103.0 443.0 109.4 L 410 136.4 Q 410 130 402.0 130 Z" fill="url(#s1-top)"/><rect x="170" y="130" width="240" height="170" rx="16" fill="url(#s1-front)"/><rect x="170" y="130" width="240" height="170" rx="16" fill="none" stroke="#000000" stroke-width="1.2" opacity="0.6"/><path d="M 186 133 L 394 133" stroke="#fff" stroke-opacity="0.35" stroke-width="2" stroke-linecap="round"/>
<rect x="196" y="196" width="150" height="26" rx="8" fill="#C8102E"/><rect x="204" y="203" width="70" height="6" rx="3" fill="#fff" opacity="0.7"/><rect x="204" y="212" width="46" height="5" rx="2.5" fill="#fff" opacity="0.45"/>
<rect x="430" y="300" width="70" height="18" rx="6" fill="#C8102E"/><rect x="438" y="306" width="36" height="6" rx="3" fill="#fff" opacity="0.7"/></g>
<g transform="translate(495.0 82) scale(0.55)"><circle cx="70" cy="70" r="54" fill="#1E8E5A"/><path d="M 42 72 L 62 92 L 100 50" fill="none" stroke="#fff" stroke-width="12" stroke-linecap="round" stroke-linejoin="round"/></g>
<text x="330.5" y="296.48" font-family="-apple-system,Segoe UI,Roboto,Helvetica,Arial,sans-serif" font-size="17" font-weight="800" fill="#1B2A41">Mount and go</text>
<text x="330.5" y="322.48" font-family="-apple-system,Segoe UI,Roboto,Helvetica,Arial,sans-serif" font-size="15.5" fill="#333">Mount behind the mirror, plug</text>
<text x="330.5" y="343.48" font-family="-apple-system,Segoe UI,Roboto,Helvetica,Arial,sans-serif" font-size="15.5" fill="#333">in, card in: it records on</text>
<text x="330.5" y="364.48" font-family="-apple-system,Segoe UI,Roboto,Helvetica,Arial,sans-serif" font-size="15.5" fill="#333">start.</text>
<rect x="609.0" y="62" width="276.5" height="358" rx="16" fill="#fff" stroke="#1B2A41" stroke-width="4"/>
<rect x="613.0" y="66" width="268.5" height="200.48000000000002" rx="12" fill="#FBEBD2"/>
<circle cx="639.0" cy="92" r="18" fill="#1B2A41"/><text x="639.0" y="99" text-anchor="middle" font-family="-apple-system,Segoe UI,Roboto,Helvetica,Arial,sans-serif" font-size="20" font-weight="800" fill="#fff">3</text>
<g transform="translate(677.25 106) scale(1.0)"><path d="M 70 14 L 128 118 H 12 Z" fill="#C9781B" stroke="#1B2A41" stroke-width="5" stroke-linejoin="round"/><rect x="64" y="48" width="12" height="38" rx="5" fill="#fff"/><circle cx="70" cy="100" r="7" fill="#fff"/></g>
<text x="625.0" y="296.48" font-family="-apple-system,Segoe UI,Roboto,Helvetica,Arial,sans-serif" font-size="17" font-weight="800" fill="#1B2A41">Fender bender</text>
<text x="625.0" y="322.48" font-family="-apple-system,Segoe UI,Roboto,Helvetica,Arial,sans-serif" font-size="15.5" fill="#333">The G-sensor locks the clip;</text>
<text x="625.0" y="343.48" font-family="-apple-system,Segoe UI,Roboto,Helvetica,Arial,sans-serif" font-size="15.5" fill="#333">copy it off the card the same</text>
<text x="625.0" y="364.48" font-family="-apple-system,Segoe UI,Roboto,Helvetica,Arial,sans-serif" font-size="15.5" fill="#333">day.</text>
<rect x="903.5" y="62" width="276.5" height="358" rx="16" fill="#fff" stroke="#1B2A41" stroke-width="4"/>
<rect x="907.5" y="66" width="268.5" height="200.48000000000002" rx="12" fill="#EDE9F7"/>
<circle cx="933.5" cy="92" r="18" fill="#1B2A41"/><text x="933.5" y="99" text-anchor="middle" font-family="-apple-system,Segoe UI,Roboto,Helvetica,Arial,sans-serif" font-size="20" font-weight="800" fill="#fff">4</text>
<g transform="translate(911.5 72) scale(0.5)"><path d="M 108 120 Q 92 200 104 250 L 216 250 Q 228 200 212 120 Q 160 40 108 120 Z" fill="#3A2A22"/><rect x="146" y="166" width="28" height="36" rx="10" fill="#D89C74"/><path d="M 96 236 Q 100 210 132 202 L 160 196 L 188 202 Q 220 210 224 236 L 232 360 L 88 360 Z" fill="#1B2A41"/><path d="M 138 204 L 160 244 L 182 204 L 172 200 L 160 220 L 148 200 Z" fill="#1E8E5A"/><path d="M 136 204 L 118 360 M 184 204 L 202 360" stroke="#14202F" stroke-width="3" fill="none" opacity="0.6"/><path d="M 98 240 Q 84 300 96 350 L 116 348 Q 108 300 118 244 Z" fill="#1B2A41"/><circle cx="106" cy="352" r="12" fill="#EDBB94"/><ellipse cx="160" cy="118" rx="50" ry="58" fill="#EDBB94"/><path d="M 110 118 q -8 26 12 22 M 210 118 q 8 26 -12 22" stroke="#EDBB94" stroke-width="10" stroke-linecap="round" fill="none"/><path d="M 108 116 Q 112 52 168 56 Q 216 60 212 118 Q 208 92 184 84 Q 150 104 122 92 Q 110 100 108 116 Z" fill="#3A2A22"/><path d="M 128 72 Q 150 60 178 66" stroke="#5A4034" stroke-width="4" fill="none" stroke-linecap="round" opacity="0.8"/><path d="M 130 100 q 12 -8 26 -2 M 166 98 q 14 -6 26 2" stroke="#3A2A22" stroke-width="3.2" fill="none" stroke-linecap="round"/><path d="M 131 116 q 12 -12 24 0 q -12 10 -24 0 z" fill="#fff"/><circle cx="144" cy="115" r="5.2" fill="#3B2A22"/><circle cx="146" cy="113" r="1.8" fill="#fff"/><path d="M 131 116 q 12 -12 24 0" stroke="#2A1D17" stroke-width="2.4" fill="none" stroke-linecap="round"/><path d="M 167 116 q 12 -12 24 0 q -12 10 -24 0 z" fill="#fff"/><circle cx="180" cy="115" r="5.2" fill="#3B2A22"/><circle cx="182" cy="113" r="1.8" fill="#fff"/><path d="M 167 116 q 12 -12 24 0" stroke="#2A1D17" stroke-width="2.4" fill="none" stroke-linecap="round"/><path d="M 160 124 q -6 12 4 16" stroke="#D89C74" stroke-width="2.4" fill="none" stroke-linecap="round"/><path d="M 146 150 q 14 14 30 0 q -15 6 -30 0 z" fill="#C9575D"/><path d="M 146 150 q 14 8 30 0" stroke="#A8434A" stroke-width="1.5" fill="none"/><ellipse cx="132" cy="136" rx="9" ry="5" fill="#E58A7A" opacity="0.35"/><ellipse cx="190" cy="136" rx="9" ry="5" fill="#E58A7A" opacity="0.35"/><circle cx="112" cy="146" r="3.5" fill="#D4AF37"/><circle cx="208" cy="146" r="3.5" fill="#D4AF37"/><path d="M 222 232 Q 250 236 262 210 L 280 216 Q 268 256 226 254 Z" fill="#1B2A41"/><rect x="244" y="176" width="28" height="30" rx="9" fill="#EDBB94"/><path d="M 262 178 q 0 -22 8 -26 q 10 -2 8 14 l -2 14" fill="#EDBB94" stroke="#D89C74" stroke-width="1.5"/></g>
<g transform="translate(1106.0 76) scale(0.42)"><line x1="70" y1="70" x2="128.0" y2="70.0" stroke="#C9781B" stroke-width="7" stroke-linecap="round"/><line x1="70" y1="70" x2="120.22948624517653" y2="98.99997778526082" stroke="#C9781B" stroke-width="7" stroke-linecap="round"/><line x1="70" y1="70" x2="99.00004442946133" y2="120.2294477681098" stroke="#C9781B" stroke-width="7" stroke-linecap="round"/><line x1="70" y1="70" x2="70.00007695410402" y2="127.99999999994895" stroke="#C9781B" stroke-width="7" stroke-linecap="round"/><line x1="70" y1="70" x2="41.000088858990715" y2="120.22952472215485" stroke="#C9781B" stroke-width="7" stroke-linecap="round"/><line x1="70" y1="70" x2="19.770590709045365" y2="99.00011107361075" stroke="#C9781B" stroke-width="7" stroke-linecap="round"/><line x1="70" y1="70" x2="12.000000000204203" y2="70.00015390820803" stroke="#C9781B" stroke-width="7" stroke-linecap="round"/><line x1="70" y1="70" x2="19.770436800955252" y2="41.0001555032933" stroke="#C9781B" stroke-width="7" stroke-linecap="round"/><line x1="70" y1="70" x2="40.99982228229084" y2="19.77062918628897" stroke="#C9781B" stroke-width="7" stroke-linecap="round"/><line x1="70" y1="70" x2="69.999769137688" y2="12.000000000459465" stroke="#C9781B" stroke-width="7" stroke-linecap="round"/><line x1="70" y1="70" x2="98.99977785235308" y2="19.770398324153795" stroke="#C9781B" stroke-width="7" stroke-linecap="round"/><line x1="70" y1="70" x2="120.22933233637903" y2="40.99975563824354" stroke="#C9781B" stroke-width="7" stroke-linecap="round"/><circle cx="70" cy="70" r="30" fill="#F2C94C" stroke="#C9781B" stroke-width="4"/></g>
<text x="919.5" y="296.48" font-family="-apple-system,Segoe UI,Roboto,Helvetica,Arial,sans-serif" font-size="17" font-weight="800" fill="#1B2A41">Parking, sorted</text>
<text x="919.5" y="322.48" font-family="-apple-system,Segoe UI,Roboto,Helvetica,Arial,sans-serif" font-size="15.5" fill="#333">With a hardwire kit the camera</text>
<text x="919.5" y="343.48" font-family="-apple-system,Segoe UI,Roboto,Helvetica,Arial,sans-serif" font-size="15.5" fill="#333">keeps watch while you sleep.</text>
</svg>