<svg xmlns="http://www.w3.org/2000/svg" viewBox="0 0 520 420" width="520" height="420"><defs></defs><path d="M 180 200 Q 120 60 260 40 Q 330 60 290 180 Z" fill="#1e1e24" stroke="#3a2618" stroke-width="4" stroke-linejoin="round" stroke-linecap="round"/><path d="M 190 250 Q 90 330 60 300 Q 130 260 200 210 Z" fill="#1e1e24" stroke="#3a2618" stroke-width="4" stroke-linejoin="round" stroke-linecap="round"/><path d="M 120 240 Q 30 300 20 290 L 130 210 Z" fill="#1e1e24" stroke="#3a2618" stroke-width="4" stroke-linejoin="round" stroke-linecap="round"/><path d="M 150 190 Q 220 150 330 170 Q 420 190 440 220 Q 380 300 260 290 Q 170 280 150 190 Z" fill="#1e1e24" stroke="#3a2618" stroke-width="4" stroke-linejoin="round" stroke-linecap="round"/><path d="M 190 230 Q 260 220 330 240 Q 340 280 260 290 Q 190 280 190 230 Z" fill="#f4f4f4" stroke="#3a2618" stroke-width="4" stroke-linejoin="round" stroke-linecap="round"/><path d="M 230 120 Q 270 90 300 130 Q 260 150 230 120 Z" fill="#f4f4f4" stroke="none"/><path d="M 400 190 Q 460 170 490 200 Q 470 240 420 240 Z" fill="#1e1e24" stroke="#3a2618" stroke-width="4" stroke-linejoin="round" stroke-linecap="round"/><circle cx="445" cy="205" r="9" fill="#ffffff" stroke-width="2.5" stroke="#3a2618" stroke-linejoin="round" stroke-linecap="round"/><circle cx="447" cy="206" r="4" fill="#3a2618" stroke="none"/><polygon points="490,200 520,212 490,226" fill="#3a3a44" stroke="#3a2618" stroke-width="4" stroke-linejoin="round" stroke-linecap="round"/><path d="M 250 100 Q 220 60 250 40 Q 280 70 300 120 Z" fill="#3a4c8a" stroke="none" stroke-width="4" stroke-linejoin="round" stroke-linecap="round"/></svg>