<svg xmlns="http://www.w3.org/2000/svg" viewBox="0 0 600 400" role="img" aria-label="O-Cedar EasyWring Microfiber Spin Mop and Bucket (product render)">
<defs>
<radialGradient id="cocedarmop-bg" cx="50%" cy="38%" r="72%"><stop offset="0" stop-color="#ffffff"/><stop offset="0.7" stop-color="#f3f3f1"/><stop offset="1" stop-color="#e4e4e1"/></radialGradient>
<filter id="cocedarmop-blur" x="-30%" y="-80%" width="160%" height="300%"><feGaussianBlur stdDeviation="9"/></filter>
<filter id="cocedarmop-soft" x="-20%" y="-20%" width="140%" height="140%"><feGaussianBlur stdDeviation="2.2"/></filter>
<filter id="cocedarmop-glow" x="-50%" y="-50%" width="200%" height="200%"><feGaussianBlur stdDeviation="5"/></filter>
<linearGradient id="cocedarmop-front" x1="0" y1="0" x2="0.35" y2="1"><stop offset="0" stop-color="#ed1e40"/><stop offset="0.55" stop-color="#C8102E"/><stop offset="1" stop-color="#9d0d24"/></linearGradient>
<linearGradient id="cocedarmop-side" x1="0" y1="0" x2="1" y2="1"><stop offset="0" stop-color="#ac0e27"/><stop offset="1" stop-color="#6a0818"/></linearGradient>
<linearGradient id="cocedarmop-top" x1="0" y1="0" x2="1" y2="1"><stop offset="0" stop-color="#f26078"/><stop offset="1" stop-color="#e41235"/></linearGradient>
<radialGradient id="cocedarmop-dome" cx="38%" cy="32%" r="75%"><stop offset="0" stop-color="#f25770"/><stop offset="0.6" stop-color="#C8102E"/><stop offset="1" stop-color="#860b1f"/></radialGradient>
<linearGradient id="cocedarmop-gloss" x1="0" y1="0" x2="1" y2="1"><stop offset="0" stop-color="#ffffff" stop-opacity="0.55"/><stop offset="0.5" stop-color="#ffffff" stop-opacity="0.05"/><stop offset="1" stop-color="#ffffff" stop-opacity="0"/></linearGradient>
<linearGradient id="cocedarmop-screen" x1="0" y1="0" x2="1" y2="1"><stop offset="0" stop-color="#1d2a3a"/><stop offset="1" stop-color="#060a10"/></linearGradient>
<linearGradient id="cocedarmop-metal" x1="0" y1="0" x2="1" y2="0"><stop offset="0" stop-color="#d9d9d6"/><stop offset="0.35" stop-color="#f4f4f2"/><stop offset="0.65" stop-color="#bdbdb9"/><stop offset="1" stop-color="#e6e6e3"/></linearGradient>
<linearGradient id="cocedarmop-accent" x1="0" y1="0" x2="0" y2="1"><stop offset="0" stop-color="#4d5f76"/><stop offset="1" stop-color="#171c23"/></linearGradient>
<linearGradient id="cocedarmop-lens" x1="0" y1="0" x2="1" y2="1"><stop offset="0" stop-color="#5a6470"/><stop offset="0.45" stop-color="#1c2129"/><stop offset="0.55" stop-color="#2b323c"/><stop offset="1" stop-color="#0c0f14"/></linearGradient>
</defs>
<rect width="600" height="400" rx="18" fill="url(#cocedarmop-bg)"/><ellipse cx="300" cy="336" rx="200" ry="16" fill="#000" opacity="0.28" filter="url(#cocedarmop-blur)"/>
<ellipse cx="300" cy="316" rx="92" ry="20" fill="#3a050d"/><rect x="208" y="112" width="184" height="204" fill="url(#cocedarmop-front)"/><ellipse cx="300" cy="112" rx="92" ry="20" fill="#f25770"/><ellipse cx="300" cy="316" rx="92" ry="20" fill="#C8102E" opacity="0.35"/><rect x="208" y="150" width="184" height="18" fill="#2F3A48"/><ellipse cx="300" cy="112" rx="56" ry="11" fill="#3a050d"/><rect x="224" y="124" width="12" height="170" rx="6" fill="#fff" opacity="0.16"/>
<rect x="430" y="300" width="70" height="18" rx="6" fill="#2F3A48"/><rect x="438" y="306" width="36" height="6" rx="3" fill="#fff" opacity="0.7"/>
<g font-family="-apple-system,Segoe UI,Roboto,Helvetica,Arial,sans-serif">
<rect x="18" y="18" width="340" height="28" rx="14" fill="#1B2A41"/>
<text x="188.0" y="37" text-anchor="middle" font-size="13" font-weight="700" fill="#fff">Foot-pedal wringer · triangle head · washable</text>
<text x="22" y="380" font-size="22" font-weight="700" fill="#1B2A41">O-Cedar spin mop</text>
<text x="578" y="382" text-anchor="end" font-size="11" fill="#9a9a9a">Render, not a photo</text>
</g>
</svg>
