<svg xmlns="http://www.w3.org/2000/svg" viewBox="0 0 600 400" role="img" aria-label="Apple AirPods Pro 3 (illustration)">
<rect width="600" height="400" rx="18" fill="#F7F5F0"/>
<ellipse cx="300" cy="318" rx="190" ry="16" fill="#000" opacity="0.07"/>
<rect x="150" y="70" width="300" height="120" rx="40" fill="#E4E4E4" opacity="0.92"/>
<rect x="150" y="150" width="300" height="140" rx="40" fill="#F4F4F4"/>
<rect x="170" y="165" width="260" height="110" rx="30" fill="#000" opacity="0.18"/>
<circle cx="300" cy="228" r="6" fill="#222" opacity="0.8"/>
<ellipse cx="248" cy="205" rx="26" ry="24" fill="#FAFAFA" stroke="#fff" stroke-width="1" stroke-opacity="0.3"/><rect x="246" y="218" width="16" height="58" rx="8" fill="#FAFAFA" transform="rotate(-8 248 240)"/><circle cx="238" cy="200" r="7" fill="#222" opacity="0.7"/>
<ellipse cx="352" cy="205" rx="26" ry="24" fill="#FAFAFA" stroke="#fff" stroke-width="1" stroke-opacity="0.3"/><rect x="338" y="218" width="16" height="58" rx="8" fill="#FAFAFA" transform="rotate(8 352 240)"/><circle cx="362" cy="200" r="7" fill="#222" opacity="0.7"/>
<g font-family="-apple-system,Segoe UI,Roboto,Helvetica,Arial,sans-serif">
<rect x="18" y="18" width="311" height="28" rx="14" fill="#1B2A41"/>
<text x="173.5" y="37" text-anchor="middle" font-size="13" font-weight="700" fill="#fff">Best on iPhone · heart rate · hearing aid</text>
<text x="22" y="378" font-size="22" font-weight="700" fill="#1B2A41">Apple AirPods Pro 3</text>
<text x="578" y="380" text-anchor="end" font-size="11" fill="#999">Illustration</text>
</g>
</svg>
